<svg xmlns="http://www.w3.org/2000/svg" style="display:none">
  <symbol id="i-dash" viewBox="0 0 24 24"><rect x="3" y="3" width="7" height="9" rx="1"/><rect x="14" y="3" width="7" height="5" rx="1"/><rect x="14" y="12" width="7" height="9" rx="1"/><rect x="3" y="16" width="7" height="5" rx="1"/></symbol>
  <symbol id="i-group" viewBox="0 0 24 24"><circle cx="9" cy="8" r="3"/><circle cx="17" cy="10" r="2.5"/><path d="M3 20c0-3.3 2.7-6 6-6s6 2.7 6 6"/><path d="M15 20c0-2.2 1.8-4 4-4"/></symbol>
  <symbol id="i-alert" viewBox="0 0 24 24"><path d="M12 3L2 20h20L12 3z"/><line x1="12" y1="10" x2="12" y2="14"/><circle cx="12" cy="17" r="1" fill="currentColor" stroke="none"/></symbol>
  <symbol id="i-crowd" viewBox="0 0 24 24"><polygon points="3 6 9 3 15 6 21 3 21 19 3 19"/><line x1="9" y1="9" x2="9" y2="15"/><line x1="15" y1="9" x2="15" y2="15"/></symbol>
  <symbol id="i-scan" viewBox="0 0 24 24"><path d="M4 7V5a1 1 0 011-1h2M20 7V5a1 1 0 00-1-1h-2M4 17v2a1 1 0 001 1h2M20 17v2a1 1 0 01-1 1h-2"/><rect x="7" y="7" width="10" height="10" rx="1"/></symbol>
  <symbol id="i-menu" viewBox="0 0 24 24"><line x1="4" y1="7" x2="20" y2="7"/><line x1="4" y1="12" x2="20" y2="12"/><line x1="4" y1="17" x2="20" y2="17"/></symbol>
  <symbol id="i-med" viewBox="0 0 24 24"><rect x="6" y="4" width="12" height="16" rx="2"/><line x1="12" y1="9" x2="12" y2="15"/><line x1="9" y1="12" x2="15" y2="12"/></symbol>
  <symbol id="i-miss" viewBox="0 0 24 24"><path d="M18 8a6 6 0 10-12 0c0 7-3 9-3 9h18s-3-2-3-9"/><line x1="13.7" y1="21" x2="10.3" y2="21"/></symbol>
  <symbol id="i-wear" viewBox="0 0 24 24"><rect x="7" y="6" width="10" height="12" rx="3"/><line x1="9" y1="10" x2="15" y2="10"/><line x1="12" y1="6" x2="12" y2="4"/></symbol>
  <symbol id="i-trans" viewBox="0 0 24 24"><circle cx="12" cy="12" r="9"/><line x1="2" y1="12" x2="22" y2="12"/><path d="M12 3a15 15 0 010 18M12 3a15 15 0 000 18"/></symbol>
  <symbol id="i-exp" viewBox="0 0 24 24"><path d="M12 3l2.5 7.5H22l-6 4.5 2.5 7.5L12 18l-6.5 4.5L8 15 2 10.5h7.5L12 3z"/></symbol>
  <symbol id="i-fiqh" viewBox="0 0 24 24"><path d="M4 5h16v14H4z"/><line x1="8" y1="9" x2="16" y2="9"/><line x1="8" y1="13" x2="14" y2="13"/></symbol>
  <symbol id="i-link" viewBox="0 0 24 24"><path d="M10 13a5 5 0 007 0l1-1a5 5 0 00-7-7l-1 1"/><path d="M14 11a5 5 0 00-7 0l-1 1a5 5 0 007 7l1-1"/></symbol>
  <symbol id="i-mgr" viewBox="0 0 24 24"><rect x="3" y="8" width="18" height="12" rx="1"/><path d="M7 8V6a5 5 0 0110 0v2"/><line x1="12" y1="13" x2="12" y2="16"/></symbol>
  <symbol id="i-ai" viewBox="0 0 24 24"><circle cx="12" cy="12" r="3"/><path d="M12 2v2M12 20v2M4.9 4.9l1.4 1.4M17.7 17.7l1.4 1.4M2 12h2M20 12h2M4.9 19.1l1.4-1.4M17.7 6.3l1.4-1.4"/></symbol>
  <symbol id="i-coord" viewBox="0 0 24 24"><circle cx="7" cy="8" r="3"/><circle cx="17" cy="8" r="3"/><path d="M2 20c0-2.8 2.2-5 5-5M22 20c0-2.8-2.2-5-5-5"/></symbol>
  <symbol id="i-rep" viewBox="0 0 24 24"><polyline points="4 17 10 11 14 15 20 7"/><polyline points="16 7 20 7 20 11"/></symbol>
  <symbol id="i-pitch" viewBox="0 0 24 24"><path d="M8 21l4-9 4 9"/><circle cx="12" cy="7" r="4"/></symbol>
  <symbol id="i-home" viewBox="0 0 24 24"><path d="M4 10l8-6 8 6"/><path d="M6 10v10h12V10"/></symbol>
  <symbol id="i-net" viewBox="0 0 24 24"><path d="M5 12a7 7 0 0114 0"/><path d="M8.5 12a3.5 3.5 0 017 0"/><circle cx="12" cy="17" r="1" fill="currentColor" stroke="none"/></symbol>
  <symbol id="i-chevron" viewBox="0 0 24 24"><polyline points="9 6 15 12 9 18"/></symbol>
</svg>
